<svg width="234" height="22" viewBox="0 0 234 22" fill="none" xmlns="http://www.w3.org/2000/svg">
<g clip-path="url(#clip0_28_81)">
<path d="M0 21.4245L4.18908 0.479126H13.5825C16.3531 0.479126 18.4974 1.08163 20.0155 2.29139C21.5289 3.4964 22.288 5.19006 22.288 7.36287C22.288 9.11821 21.8563 10.6553 20.9881 11.9694C20.1199 13.2836 18.8912 14.313 17.3066 15.0531C15.7221 15.7932 13.8529 16.1585 11.6943 16.1585H4.93391L8.7055 13.1982L7.05928 21.4245H0ZM8.52522 14.0331L6.04404 10.8308H12.0596C13.0369 10.8308 13.796 10.5889 14.332 10.0955C14.8729 9.60685 15.1386 8.9237 15.1386 8.04603C15.1386 7.28697 14.9061 6.74614 14.4364 6.41405C13.9668 6.0867 13.3263 5.92066 12.5056 5.92066H7.03082L10.8024 2.62822L8.52996 14.0284L8.52522 14.0331ZM12.8044 21.4245L8.49676 13.7959H15.7695L20.1389 21.4245H12.8092H12.8044Z" fill="#CBD4C6"/>
<path d="M30.2772 16.0968H40.7807L39.7038 21.4245H22.2881L26.4772 0.479126H43.4991L42.4222 5.8068H32.3409L30.2772 16.1016V16.0968ZM31.3874 8.25952H40.7238L39.7086 13.3452H30.3721L31.3874 8.25952Z" fill="#CBD4C6"/>
<path d="M46.9719 21.4245L50.0556 5.95386H43.9214L45.0268 0.479126H64.3544L63.249 5.95386H57.1148L54.0311 21.4245H46.9719Z" fill="#CBD4C6"/>
<path d="M73.482 21.9037C71.3092 21.9037 69.4258 21.5052 67.8412 20.7082C66.2567 19.9112 65.0279 18.8105 64.1598 17.4015C63.2916 15.9925 62.8599 14.3747 62.8599 12.5388C62.8599 10.7028 63.1825 8.99489 63.8324 7.46728C64.4824 5.93966 65.3932 4.62079 66.5698 3.50118C67.7463 2.3863 69.1411 1.52287 70.7589 0.910875C72.3766 0.303625 74.1414 0 76.0533 0C78.2261 0 80.1096 0.398508 81.6941 1.19552C83.2786 1.99254 84.5074 3.09318 85.3756 4.50219C86.2437 5.90646 86.6754 7.52895 86.6754 9.36493C86.6754 11.2009 86.3528 12.9088 85.7029 14.4364C85.053 15.964 84.1421 17.2829 82.9655 18.4025C81.789 19.5221 80.3942 20.3808 78.7765 20.9928C77.1587 21.6001 75.3939 21.9037 73.482 21.9037ZM74.0798 16.187C74.9574 16.187 75.7307 16.0162 76.3996 15.6794C77.0686 15.3426 77.6426 14.8729 78.1218 14.2751C78.6009 13.6774 78.9615 12.9942 79.1987 12.2257C79.4359 11.4571 79.5592 10.6459 79.5592 9.78716C79.5592 8.92847 79.3932 8.25481 79.0659 7.64756C78.7385 7.04031 78.2688 6.56589 77.6616 6.22431C77.0543 5.88748 76.319 5.71669 75.4603 5.71669C74.6016 5.71669 73.8331 5.88748 73.1546 6.22431C72.4762 6.56589 71.8974 7.03082 71.4183 7.62858C70.9391 8.22634 70.5786 8.9095 70.3414 9.67805C70.1042 10.4466 69.9808 11.2578 69.9808 12.1165C69.9808 12.9136 70.1469 13.6252 70.4742 14.2419C70.8016 14.8587 71.2712 15.3378 71.8785 15.6794C72.4857 16.0162 73.2211 16.187 74.0798 16.187Z" fill="#CBD4C6"/>
<path d="M97.4779 21.9037C95.3051 21.9037 93.4881 21.4909 92.0317 20.6607C90.5752 19.8352 89.541 18.6777 88.9338 17.188C88.3265 15.7031 88.2221 13.9715 88.6206 11.9979L90.9263 0.479126H97.9856L95.7131 11.8793C95.4142 13.3547 95.5044 14.4411 95.9835 15.1385C96.4627 15.8359 97.2502 16.187 98.3461 16.187C99.3614 16.187 100.168 15.8644 100.756 15.2144C101.344 14.5645 101.8 13.4544 102.118 11.8793L104.39 0.479126H111.331L108.968 12.2968C108.352 15.4279 107.085 17.8142 105.168 19.4462C103.252 21.0829 100.69 21.8989 97.4779 21.8989V21.9037Z" fill="#CBD4C6"/>
<path d="M122.133 21.9037C119.979 21.9037 118.096 21.5099 116.478 20.7224C114.86 19.9349 113.613 18.839 112.721 17.43C111.834 16.0257 111.388 14.3937 111.388 12.5388C111.388 10.6838 111.71 9.01861 112.36 7.48151C113.01 5.94441 113.921 4.62079 115.098 3.50118C116.274 2.3863 117.669 1.52287 119.287 0.910875C120.904 0.303625 122.679 0 124.614 0C126.55 0 128.414 0.360555 129.97 1.07692C131.527 1.79329 132.684 2.83225 133.443 4.18908L128.357 8.16941C127.916 7.39137 127.352 6.78887 126.654 6.35715C125.957 5.93018 125.127 5.71195 124.173 5.71195C123.333 5.71195 122.574 5.8685 121.886 6.17687C121.199 6.48524 120.606 6.92645 120.107 7.49574C119.609 8.06504 119.22 8.73871 118.94 9.51675C118.66 10.2948 118.523 11.1535 118.523 12.0881C118.523 12.9041 118.703 13.6252 119.064 14.2419C119.424 14.8587 119.927 15.3378 120.572 15.6794C121.222 16.0162 121.972 16.187 122.831 16.187C123.689 16.187 124.453 15.9972 125.241 15.6177C126.028 15.2382 126.782 14.6214 127.499 13.7628L131.659 17.7431C130.383 19.2992 128.96 20.3808 127.394 20.9881C125.829 21.5953 124.078 21.899 122.143 21.899L122.133 21.9037Z" fill="#CBD4C6"/>
<path d="M139.544 21.4245H132.485L136.674 0.479126H143.733L139.544 21.4245ZM148.069 13.701H140.621L141.788 7.89896H149.236L148.069 13.701ZM150.256 0.479126H157.316L153.127 21.4245H146.067L150.256 0.479126Z" fill="#CBD4C6"/>
<path d="M169.693 20.5184C169.527 20.2337 169.466 19.9633 169.508 19.6929C169.551 19.4272 169.679 19.0762 169.897 18.6397C170.111 18.208 170.405 17.6624 170.775 17.0125L172.061 14.8207L173.641 12.2209L175.424 9.4171L177.294 6.61331C174.945 7.19684 173.152 7.89423 171.918 8.70073C171.714 8.83831 171.539 8.98063 171.392 9.12296L170.894 9.62109C170.59 9.92472 170.296 10.0765 170.002 10.0765C169.708 10.0765 169.485 10.0386 169.323 9.96742C169.162 9.89625 169.034 9.80137 168.934 9.68277C168.692 9.40286 168.645 9.08975 168.802 8.74817C169.219 7.40558 169.822 6.02978 170.6 4.63026C171.027 3.85222 171.368 3.40152 171.624 3.28767C173.475 2.49065 177.332 1.90712 183.195 1.54657C185.102 1.42796 187.109 1.37103 189.216 1.37103C190.587 1.37103 191.896 1.86442 193.13 2.84646C194.515 3.96608 195.203 5.37034 195.203 7.05451C195.203 9.25579 193.315 11.3385 189.533 13.3073C187.441 14.4079 185.473 15.1765 183.632 15.6177C183.153 15.7268 182.787 15.779 182.526 15.779C182.265 15.779 181.976 15.7458 181.649 15.6746C181.321 15.6082 181.027 15.5086 180.766 15.3805C180.145 15.0674 179.832 14.6926 179.832 14.2561C179.832 13.6346 180.429 12.9989 181.63 12.3585L184.77 10.6648C186.63 9.67328 187.778 8.95217 188.219 8.50148C188.661 8.05078 188.879 7.68548 188.879 7.39609C188.879 7.1067 188.822 6.84103 188.713 6.59908C188.599 6.35712 188.447 6.13415 188.253 5.93964C187.835 5.52216 187.384 5.31341 186.91 5.31341C185.918 5.31341 184.718 5.38932 183.314 5.54588L181.53 8.6865C179.253 12.8281 177.702 16.5475 176.886 19.8495C176.554 21.1351 175.301 21.7803 173.133 21.7803C171.34 21.7803 170.196 21.3628 169.698 20.5231L169.693 20.5184Z" fill="#679A58"/>
<path d="M193.414 16.5997C193.229 16.5997 193.049 16.557 192.868 16.4669C192.688 16.3815 192.522 16.2392 192.365 16.0447C192.024 15.6177 191.853 15.0342 191.853 14.2893C191.853 13.5018 192.327 12.515 193.272 11.3385C194.187 10.1999 195.255 9.21312 196.469 8.38764C197.774 7.49099 198.893 7.04504 199.828 7.04504C200.653 7.04504 201.218 7.27751 201.507 7.74718L201.711 8.06978C201.868 8.31173 202.024 8.43508 202.181 8.43508C202.338 8.43508 202.58 8.42084 202.912 8.39238L204.985 8.24531C205.307 8.21685 205.559 8.20261 205.744 8.20261C205.929 8.20261 206.142 8.26903 206.38 8.40187C206.617 8.5347 206.83 8.70549 207.015 8.91898C207.423 9.40763 207.627 9.94371 207.627 10.5272C207.627 11.1108 206.958 12.0786 205.625 13.3737L204.662 14.3368C203.97 15.0484 203.623 15.4944 203.623 15.6794C203.623 15.8644 203.709 16.0257 203.884 16.168C204.06 16.3104 204.249 16.3815 204.453 16.3815C204.657 16.3815 204.89 16.3246 205.146 16.2155C205.402 16.1016 205.725 15.9403 206.104 15.7173C206.484 15.4991 206.916 15.2334 207.404 14.9203C208.737 14.0427 209.629 13.4401 210.08 13.1081L211.295 12.2446C212.12 11.6611 212.713 11.367 213.064 11.367C213.415 11.367 213.7 11.4429 213.928 11.5947C214.155 11.7465 214.264 12.0074 214.264 12.3775C214.264 12.7475 214.075 13.2456 213.695 13.8671C213.316 14.4886 212.903 15.0294 212.462 15.4896C212.02 15.9498 211.589 16.372 211.166 16.761C210.749 17.1501 210.256 17.5723 209.682 18.023C209.112 18.4784 208.481 18.9339 207.789 19.3988C207.096 19.859 206.365 20.2765 205.597 20.6465C203.851 21.4957 202.252 21.9179 200.791 21.9179C198.656 21.9179 197.356 21.3676 196.891 20.267C196.744 19.9349 196.673 19.5648 196.673 19.1568C196.673 18.7488 196.749 18.3076 196.906 17.8332C197.062 17.3588 197.266 16.8891 197.518 16.4242C198.025 15.4991 198.623 14.6831 199.316 13.9715C199.899 13.3595 200.193 12.9942 200.193 12.8756C200.193 12.6906 200.089 12.572 199.88 12.5245C199.671 12.4771 199.363 12.4534 198.95 12.4534C198.775 12.4534 198.4 12.7048 197.826 13.2124L196.393 14.5266C194.875 15.9118 193.879 16.5997 193.414 16.5997Z" fill="#679A58"/>
<path d="M227.078 12.4249C227.078 12.9515 227.524 13.2124 228.421 13.2124C229.085 13.2124 229.948 12.8898 231.021 12.2493L232.188 11.6089C232.548 11.4049 232.861 11.3005 233.132 11.3005C233.402 11.3005 233.611 11.3812 233.767 11.5472C233.924 11.7133 234 11.941 234 12.2351C234 12.5292 233.9 12.8661 233.706 13.2504C233.511 13.6346 233.241 14.0379 232.904 14.4649C232.562 14.8871 232.164 15.3093 231.708 15.7221C231.248 16.1348 230.76 16.5096 230.233 16.8417C229.066 17.5723 227.98 17.9376 226.974 17.9376C225.911 17.9376 225.067 17.7573 224.431 17.3967C224.236 17.2781 224.047 17.1595 223.862 17.0314C222.818 18.2175 221.309 19.3086 219.331 20.3049C217.229 21.3581 215.393 21.8847 213.823 21.8847C212.177 21.8847 210.877 21.2347 209.923 19.9396C209.155 18.8864 208.771 17.819 208.771 16.742C208.771 15.186 209.605 13.6963 211.271 12.2873C212.499 11.2531 213.685 10.4703 214.829 9.9342C215.972 9.39811 217.006 8.98537 217.931 8.69124C219.891 8.07924 221.651 7.77087 223.221 7.77087C223.923 7.77087 224.55 7.90371 225.1 8.17413C225.65 8.44454 226.058 8.71021 226.319 8.98537C226.941 9.59737 227.254 10.3849 227.254 11.3385C227.254 11.6231 227.225 11.8413 227.164 11.9979C227.107 12.1545 227.078 12.3015 227.078 12.4344V12.4249ZM215.128 15.186L215.113 15.2287V15.2429C215.113 15.6604 215.204 15.9355 215.389 16.0589C215.835 16.334 216.309 16.4005 216.807 16.2724C217.305 16.1395 217.775 15.9782 218.226 15.7837C219.336 15.3046 220.337 14.7021 221.233 13.9715C221.077 13.6584 221.001 13.3405 221.001 13.0084C221.001 12.3063 221.309 11.6041 221.921 10.9068C221.143 10.9068 220.09 11.272 218.766 12.0026C217.305 12.8092 216.209 13.6441 215.479 14.5028C215.246 14.7969 215.128 15.0247 215.128 15.1907V15.186Z" fill="#679A58"/>
</g>
<defs>
<clipPath id="clip0_28_81">
<rect width="234" height="21.9179" fill="white"/>
</clipPath>
</defs>
</svg>
